<?xml version="1.0" encoding="UTF-8" standalone="no"?>
<!-- Generator: Adobe Illustrator 23.0.3, SVG Export Plug-In . SVG Version: 6.00 Build 0)  -->

<svg
   version="1.1"
   id="Layer_1"
   x="0px"
   y="0px"
   viewBox="0 0 265 302.88141"
   xml:space="preserve"
   sodipodi:docname="avataaars.svg"
   width="265"
   height="302.88141"
   inkscape:version="1.1 (c68e22c387, 2021-05-23)"
   xmlns:inkscape="http://www.inkscape.org/namespaces/inkscape"
   xmlns:sodipodi="http://sodipodi.sourceforge.net/DTD/sodipodi-0.dtd"
   xmlns="http://www.w3.org/2000/svg"
   xmlns:svg="http://www.w3.org/2000/svg"><defs
   id="defs181" /><sodipodi:namedview
   id="namedview179"
   pagecolor="#ffffff"
   bordercolor="#666666"
   borderopacity="1.0"
   inkscape:pageshadow="2"
   inkscape:pageopacity="0.0"
   inkscape:pagecheckerboard="0"
   showgrid="false"
   inkscape:zoom="1.5178571"
   inkscape:cx="178.54118"
   inkscape:cy="209.83529"
   inkscape:window-width="1920"
   inkscape:window-height="1013"
   inkscape:window-x="-9"
   inkscape:window-y="-9"
   inkscape:window-maximized="1"
   inkscape:current-layer="Layer_1" />
<style
   type="text/css"
   id="style2">
	.st0{fill-rule:evenodd;clip-rule:evenodd;fill:#E6E6E6;}
	.st1{filter:url(#Adobe_OpacityMaskFilter);}
	.st2{fill-rule:evenodd;clip-rule:evenodd;fill:#FFFFFF;}
	.st3{mask:url(#mask-2_1_);}
	.st4{fill-rule:evenodd;clip-rule:evenodd;fill:#2C3E50;}
	.st5{filter:url(#Adobe_OpacityMaskFilter_1_);}
	.st6{mask:url(#mask-4_1_);}
	.st7{fill-rule:evenodd;clip-rule:evenodd;fill:#D0C6AC;}
	.st8{filter:url(#Adobe_OpacityMaskFilter_2_);}
	.st9{mask:url(#mask-6_1_);}
	.st10{fill-rule:evenodd;clip-rule:evenodd;fill:#EDB98A;}
	.st11{filter:url(#Adobe_OpacityMaskFilter_3_);}
	.st12{mask:url(#mask-6_2_);fill-rule:evenodd;clip-rule:evenodd;fill-opacity:0.1;}
	.st13{filter:url(#Adobe_OpacityMaskFilter_4_);}
	.st14{mask:url(#react-mask-952_1_);}
	.st15{filter:url(#Adobe_OpacityMaskFilter_5_);}
	.st16{opacity:0.6;mask:url(#react-mask-952_2_);}
	.st17{fill-rule:evenodd;clip-rule:evenodd;fill-opacity:0.16;}
	.st18{fill-rule:evenodd;clip-rule:evenodd;fill-opacity:0.7;}
	.st19{filter:url(#Adobe_OpacityMaskFilter_6_);}
	.st20{mask:url(#react-mask-934_1_);fill-rule:evenodd;clip-rule:evenodd;fill:#FFFFFF;}
	.st21{filter:url(#Adobe_OpacityMaskFilter_7_);}
	.st22{mask:url(#react-mask-934_2_);}
	.st23{fill-rule:evenodd;clip-rule:evenodd;fill:#FF4F6D;}
	.st24{fill-rule:evenodd;clip-rule:evenodd;fill-opacity:0.6;}
	.st25{filter:url(#Adobe_OpacityMaskFilter_8_);}
	.st26{mask:url(#react-mask-925_1_);}
	.st27{fill-rule:evenodd;clip-rule:evenodd;fill:#28354B;}
	.st28{filter:url(#Adobe_OpacityMaskFilter_9_);}
	.st29{mask:url(#react-mask-924_1_);}
	.st30{fill-rule:evenodd;clip-rule:evenodd;fill:#4A312C;}
</style>
<desc
   id="desc4">Created with getavataaars.com</desc>
<g
   id="g176"
   transform="translate(1,22.881419)">
	<g
   transform="translate(-825,-1100)"
   id="g174">
		<g
   transform="translate(825,1100)"
   id="g172">
			<g
   id="Circle"
   transform="translate(12,40)">
				<g
   id="Circle-Background">
					<circle
   class="st0"
   cx="120"
   cy="120"
   r="120"
   id="circle6" />
				</g>
				<defs
   id="defs12">
					<filter
   id="Adobe_OpacityMaskFilter"
   filterUnits="userSpaceOnUse"
   x="0"
   y="0"
   width="240"
   height="240">
						<feColorMatrix
   type="matrix"
   values="1 0 0 0 0  0 1 0 0 0  0 0 1 0 0  0 0 0 1 0"
   id="feColorMatrix9" />
					</filter>
				</defs>
				<mask
   maskUnits="userSpaceOnUse"
   x="0"
   y="0"
   width="240"
   height="240"
   id="mask-2_1_">
					<g
   class="st1"
   id="g15">
						<circle
   id="path-1_1_"
   class="st2"
   cx="120"
   cy="120"
   r="120" />
					</g>
				</mask>
				<g
   class="st3"
   mask="url(#mask-2_1_)"
   id="g20">
					<rect
   class="st4"
   width="240"
   height="240"
   id="rect18"
   x="0"
   y="0" />
				</g>
			</g>
			<g
   id="Mask">
			</g>
			<defs
   id="defs27">
				<filter
   id="Adobe_OpacityMaskFilter_1_"
   filterUnits="userSpaceOnUse"
   x="-1"
   y="0"
   width="265"
   height="280">
					<feColorMatrix
   type="matrix"
   values="1 0 0 0 0  0 1 0 0 0  0 0 1 0 0  0 0 0 1 0"
   id="feColorMatrix24" />
				</filter>
			</defs>
			<mask
   maskUnits="userSpaceOnUse"
   x="-1"
   y="0"
   width="265"
   height="280"
   id="mask-4_1_">
				<g
   class="st5"
   id="g30">
					<path
   id="path-3_1_"
   class="st2"
   d="m 12,160 c 0,66.3 53.7,120 120,120 66.3,0 120,-53.7 120,-120 h 12 V 0 H 0 v 160 z" />
				</g>
			</mask>
			<g
   id="Avataaar"
   class="st6"
   mask="url(#mask-4_1_)">
				<g
   id="Body"
   transform="translate(32,36)">
					<g
   id="g35">
						<path
   class="st7"
   d="M 124,144.6 V 163 h 4 v 0 c 39.8,0 72,32.2 72,72 v 9 H 0 v -9 c 0,-39.8 32.2,-72 72,-72 v 0 h 4 V 144.6 C 58.8,136.4 46.4,119.7 44.3,99.9 38.5,99.1 34,94.1 34,88 V 74 C 34,68.1 38.3,63.1 44,62.2 V 56 56 C 44,25.1 69.1,0 100,0 v 0 0 c 30.9,0 56,25.1 56,56 v 6.2 c 5.7,1 10,5.9 10,11.8 v 14 c 0,6.1 -4.5,11.1 -10.3,11.9 -2.1,19.8 -14.5,36.5 -31.7,44.7 z"
   id="path33" />
					</g>
					<defs
   id="defs40">
						<filter
   id="Adobe_OpacityMaskFilter_2_"
   filterUnits="userSpaceOnUse"
   x="-32"
   y="0"
   width="264"
   height="244">
							<feColorMatrix
   type="matrix"
   values="1 0 0 0 0  0 1 0 0 0  0 0 1 0 0  0 0 0 1 0"
   id="feColorMatrix37" />
						</filter>
					</defs>
					<mask
   maskUnits="userSpaceOnUse"
   x="-32"
   y="0"
   width="264"
   height="244"
   id="mask-6_1_">
						<g
   class="st8"
   id="g43">
							<path
   id="path-5_1_"
   class="st2"
   d="M 124,144.6 V 163 h 4 v 0 c 39.8,0 72,32.2 72,72 v 9 H 0 v -9 c 0,-39.8 32.2,-72 72,-72 v 0 h 4 V 144.6 C 58.8,136.4 46.4,119.7 44.3,99.9 38.5,99.1 34,94.1 34,88 V 74 C 34,68.1 38.3,63.1 44,62.2 V 56 56 C 44,25.1 69.1,0 100,0 v 0 0 c 30.9,0 56,25.1 56,56 v 6.2 c 5.7,1 10,5.9 10,11.8 v 14 c 0,6.1 -4.5,11.1 -10.3,11.9 -2.1,19.8 -14.5,36.5 -31.7,44.7 z" />
						</g>
					</mask>
					<g
   class="st9"
   mask="url(#mask-6_1_)"
   id="g49">
						<g
   id="Color"
   transform="translate(-32)">
							<rect
   class="st10"
   width="264"
   height="244"
   id="rect46"
   x="0"
   y="0" />
						</g>
					</g>
					<defs
   id="defs54">
						<filter
   id="Adobe_OpacityMaskFilter_3_"
   filterUnits="userSpaceOnUse"
   x="44"
   y="79"
   width="112"
   height="79">
							<feColorMatrix
   type="matrix"
   values="1 0 0 0 0  0 1 0 0 0  0 0 1 0 0  0 0 0 1 0"
   id="feColorMatrix51" />
						</filter>
					</defs>
					<mask
   maskUnits="userSpaceOnUse"
   x="44"
   y="79"
   width="112"
   height="79"
   id="mask-6_2_">
						<g
   class="st11"
   id="g57">
							<path
   id="path-5_2_"
   class="st2"
   d="M 124,144.6 V 163 h 4 v 0 c 39.8,0 72,32.2 72,72 v 9 H 0 v -9 c 0,-39.8 32.2,-72 72,-72 v 0 h 4 V 144.6 C 58.8,136.4 46.4,119.7 44.3,99.9 38.5,99.1 34,94.1 34,88 V 74 C 34,68.1 38.3,63.1 44,62.2 V 56 56 C 44,25.1 69.1,0 100,0 v 0 0 c 30.9,0 56,25.1 56,56 v 6.2 c 5.7,1 10,5.9 10,11.8 v 14 c 0,6.1 -4.5,11.1 -10.3,11.9 -2.1,19.8 -14.5,36.5 -31.7,44.7 z" />
						</g>
					</mask>
					<path
   id="Neck-Shadow"
   class="st12"
   d="m 156,79 v 23 c 0,30.9 -25.1,56 -56,56 -30.9,0 -56,-25.1 -56,-56 V 79 94 c 0,30.9 25.1,56 56,56 30.9,0 56,-25.1 56,-56 z"
   mask="url(#mask-6_2_)" />
				</g>
				<g
   transform="translate(0,170)"
   id="g92">
					<g
   id="Clothes">
						<path
   class="st0"
   d="m 166,29.3 c 37,3 66,34 66,71.8 V 110 H 32 v -8.9 C 32,63 61.6,31.8 99,29.2 c 0,0.4 0,0.7 0,1.1 0,11.9 15,21.5 33.5,21.5 18.5,0 33.5,-9.6 33.5,-21.5 0,-0.3 0,-0.7 0,-1 z"
   id="path62" />
					</g>
					<defs
   id="defs68">
						<filter
   id="Adobe_OpacityMaskFilter_4_"
   filterUnits="userSpaceOnUse"
   x="0"
   y="0"
   width="264"
   height="110">
							<feColorMatrix
   type="matrix"
   values="1 0 0 0 0  0 1 0 0 0  0 0 1 0 0  0 0 0 1 0"
   id="feColorMatrix65" />
						</filter>
					</defs>
					<mask
   maskUnits="userSpaceOnUse"
   x="0"
   y="0"
   width="264"
   height="110"
   id="react-mask-952_1_">
						<g
   class="st13"
   id="g71">
							<path
   id="react-path-951_1_"
   class="st2"
   d="m 166,29.3 c 37,3 66,34 66,71.8 V 110 H 32 v -8.9 C 32,63 61.6,31.8 99,29.2 c 0,0.4 0,0.7 0,1.1 0,11.9 15,21.5 33.5,21.5 18.5,0 33.5,-9.6 33.5,-21.5 0,-0.3 0,-0.7 0,-1 z" />
						</g>
					</mask>
					<g
   class="st14"
   mask="url(#react-mask-952_1_)"
   id="g76">
						<rect
   class="st2"
   width="264"
   height="110"
   id="rect74"
   x="0"
   y="0" />
					</g>
					<defs
   id="defs81">
						<filter
   id="Adobe_OpacityMaskFilter_5_"
   filterUnits="userSpaceOnUse"
   x="92.900002"
   y="4.9000001"
   width="79.300003"
   height="53.799999">
							<feColorMatrix
   type="matrix"
   values="1 0 0 0 0  0 1 0 0 0  0 0 1 0 0  0 0 0 1 0"
   id="feColorMatrix78" />
						</filter>
					</defs>
					<mask
   maskUnits="userSpaceOnUse"
   x="92.9"
   y="4.9"
   width="79.3"
   height="53.8"
   id="react-mask-952_2_">
						<g
   class="st15"
   id="g84">
							<path
   id="react-path-951_2_"
   class="st2"
   d="m 166,29.3 c 37,3 66,34 66,71.8 V 110 H 32 v -8.9 C 32,63 61.6,31.8 99,29.2 c 0,0.4 0,0.7 0,1.1 0,11.9 15,21.5 33.5,21.5 18.5,0 33.5,-9.6 33.5,-21.5 0,-0.3 0,-0.7 0,-1 z" />
						</g>
					</mask>
					<g
   id="Shadowy"
   class="st16"
   mask="url(#react-mask-952_2_)">
						<g
   transform="translate(92,4)"
   id="g89">
							<ellipse
   class="st17"
   cx="40.5"
   cy="27.799999"
   rx="39.599998"
   ry="26.9"
   id="ellipse87" />
						</g>
					</g>
				</g>
				<g
   id="Face"
   transform="translate(76,82)">
					<g
   transform="translate(2,52)"
   id="g123">
						<g
   id="Mouth">
							<path
   class="st18"
   d="M 35.1,15.1 C 36.2,24.6 44.2,32 54,32 c 9.8,0 17.9,-7.4 18.9,-17 0.1,-0.8 -0.8,-2 -1.8,-2 -14.9,0 -26.3,0 -34,0 -1.1,0 -2.1,1.2 -2,2.1 z"
   id="path94" />
						</g>
						<defs
   id="defs100">
							<filter
   id="Adobe_OpacityMaskFilter_6_"
   filterUnits="userSpaceOnUse"
   x="39"
   y="2"
   width="31"
   height="16">
								<feColorMatrix
   type="matrix"
   values="1 0 0 0 0  0 1 0 0 0  0 0 1 0 0  0 0 0 1 0"
   id="feColorMatrix97" />
							</filter>
						</defs>
						<mask
   maskUnits="userSpaceOnUse"
   x="39"
   y="2"
   width="31"
   height="16"
   id="react-mask-934_1_">
							<g
   class="st19"
   id="g103">
								<path
   id="react-path-933_1_"
   class="st2"
   d="M 35.1,15.1 C 36.2,24.6 44.2,32 54,32 c 9.8,0 17.9,-7.4 18.9,-17 0.1,-0.8 -0.8,-2 -1.8,-2 -14.9,0 -26.3,0 -34,0 -1.1,0 -2.1,1.2 -2,2.1 z" />
							</g>
						</mask>
						<path
   id="Teeth"
   class="st20"
   d="m 44,2 h 21 c 2.8,0 5,2.2 5,5 v 6 c 0,2.8 -2.2,5 -5,5 H 44 c -2.8,0 -5,-2.2 -5,-5 V 7 c 0,-2.8 2.2,-5 5,-5 z"
   mask="url(#react-mask-934_1_)" />
						<defs
   id="defs110">
							<filter
   id="Adobe_OpacityMaskFilter_7_"
   filterUnits="userSpaceOnUse"
   x="38"
   y="24"
   width="32"
   height="22">
								<feColorMatrix
   type="matrix"
   values="1 0 0 0 0  0 1 0 0 0  0 0 1 0 0  0 0 0 1 0"
   id="feColorMatrix107" />
							</filter>
						</defs>
						<mask
   maskUnits="userSpaceOnUse"
   x="38"
   y="24"
   width="32"
   height="22"
   id="react-mask-934_2_">
							<g
   class="st21"
   id="g113">
								<path
   id="react-path-933_2_"
   class="st2"
   d="M 35.1,15.1 C 36.2,24.6 44.2,32 54,32 c 9.8,0 17.9,-7.4 18.9,-17 0.1,-0.8 -0.8,-2 -1.8,-2 -14.9,0 -26.3,0 -34,0 -1.1,0 -2.1,1.2 -2,2.1 z" />
							</g>
						</mask>
						<g
   id="Tongue"
   class="st22"
   mask="url(#react-mask-934_2_)">
							<g
   transform="translate(38,24)"
   id="g120">
								<circle
   class="st23"
   cx="11"
   cy="11"
   r="11"
   id="circle116" />
								<circle
   class="st23"
   cx="21"
   cy="11"
   r="11"
   id="circle118" />
							</g>
						</g>
					</g>
					<g
   transform="translate(28,40)"
   id="g126">
						<path
   id="Nose"
   class="st17"
   d="m 16,8 c 0,4.4 5.4,8 12,8 v 0 c 6.6,0 12,-3.6 12,-8" />
					</g>
					<g
   transform="translate(0,8)"
   id="g131">
						<path
   id="Squint"
   class="st24"
   d="M 16.2,22.4 C 18,18.6 22.2,16 27,16 c 4.8,0 9,2.6 10.8,6.4 0.6,1.1 -0.2,2 -1,1.4 -2.5,-2.1 -5.9,-3.4 -9.8,-3.4 -3.7,0 -7.1,1.2 -9.6,3.2 -0.9,0.7 -1.8,0 -1.2,-1.2 z" />
						<path
   class="st24"
   d="M 74.2,22.4 C 76,18.6 80.2,16 85,16 c 4.8,0 9,2.6 10.8,6.4 0.6,1.1 -0.2,2 -1,1.4 -2.5,-2.1 -5.9,-3.4 -9.8,-3.4 -3.7,0 -7.1,1.2 -9.6,3.2 -0.9,0.7 -1.8,0 -1.2,-1.2 z"
   id="path129" />
					</g>
					<g
   id="g136">
						<path
   id="Eyebrow"
   class="st24"
   d="m 26.5,6.1 c -5.8,0.3 -15.2,4.5 -15,10.3 0,0.2 0.3,0.3 0.4,0.1 2.8,-3 22.3,-5.9 29.2,-4.4 0.6,0.1 1.1,-0.5 0.7,-0.9 C 38.5,7.5 31.7,5.9 26.5,6.1" />
						<path
   class="st24"
   d="m 86.5,6.1 c 5.8,0.3 15.2,4.5 15,10.3 0,0.2 -0.3,0.3 -0.4,0.1 -2.8,-3 -22.3,-5.9 -29.2,-4.4 -0.6,0.1 -1.1,-0.5 -0.7,-0.9 3.3,-3.7 10.1,-5.3 15.3,-5.1"
   id="path134" />
					</g>
				</g>
				<g
   id="Top">
					<defs
   id="defs142">
						<filter
   id="Adobe_OpacityMaskFilter_8_"
   filterUnits="userSpaceOnUse"
   x="-1"
   y="0"
   width="264"
   height="280">
							<feColorMatrix
   type="matrix"
   values="1 0 0 0 0  0 1 0 0 0  0 0 1 0 0  0 0 0 1 0"
   id="feColorMatrix139" />
						</filter>
					</defs>
					<mask
   maskUnits="userSpaceOnUse"
   x="-1"
   y="0"
   width="264"
   height="280"
   id="react-mask-925_1_">
						<g
   class="st25"
   id="g145">
							<rect
   id="react-path-927_1_"
   class="st2"
   width="264"
   height="280"
   x="0"
   y="0" />
						</g>
					</mask>
					<g
   class="st26"
   mask="url(#react-mask-925_1_)"
   id="g168">
						<g
   transform="translate(-1)"
   id="g166">
							<g
   id="Short-Hair">
								<path
   class="st27"
   d="m 183.7,38.9 c 5.4,-5 6.7,-15 3.6,-21.5 -3.8,-8 -11.4,-9 -18.7,-5.5 -6.9,3.3 -13.1,4.4 -20.6,2.8 C 140.7,13.2 133.9,10.4 126.4,10 114,9.3 102,13.9 93.6,23.1 c -1.6,1.8 -2.9,3.8 -4.1,5.8 -1,1.6 -2.1,3.4 -2.5,5.3 -0.2,0.9 0.2,3.1 -0.3,3.8 -0.5,0.8 -2.3,1.5 -3.1,2.1 -1.6,1.2 -2.9,2.5 -4.2,4 -2.7,3.2 -4.1,6.6 -5.4,10.6 -4.1,13.2 -4.5,29 0.9,42 0.7,1.7 2.9,5.4 4.2,1.6 0.3,-0.7 -0.3,-3.2 -0.3,-3.9 0,-2.7 1.5,-20.7 8,-30.8 2.1,-3.3 12,-15.6 14,-15.7 1.1,1.7 11.9,12.5 39.9,11.2 12.7,-0.6 22.4,-6.3 24.7,-8.7 1,5.5 13,13.8 14.8,17.2 5.3,9.8 6.4,30.3 8.4,30.3 2,0 3.5,-5.2 3.9,-6.2 3.1,-7.4 3.6,-16.6 3.3,-24.6 C 195.5,57 191.3,45.9 183.7,38.9 Z"
   id="path148" />
							</g>
							<defs
   id="defs154">
								<filter
   id="Adobe_OpacityMaskFilter_9_"
   filterUnits="userSpaceOnUse"
   x="0"
   y="0"
   width="264"
   height="280">
									<feColorMatrix
   type="matrix"
   values="1 0 0 0 0  0 1 0 0 0  0 0 1 0 0  0 0 0 1 0"
   id="feColorMatrix151" />
								</filter>
							</defs>
							<mask
   maskUnits="userSpaceOnUse"
   x="0"
   y="0"
   width="264"
   height="280"
   id="react-mask-924_1_">
								<g
   class="st28"
   id="g157">
									<path
   id="react-path-926_1_"
   class="st2"
   d="m 183.7,38.9 c 5.4,-5 6.7,-15 3.6,-21.5 -3.8,-8 -11.4,-9 -18.7,-5.5 -6.9,3.3 -13.1,4.4 -20.6,2.8 C 140.7,13.2 133.9,10.4 126.4,10 114,9.3 102,13.9 93.6,23.1 c -1.6,1.8 -2.9,3.8 -4.1,5.8 -1,1.6 -2.1,3.4 -2.5,5.3 -0.2,0.9 0.2,3.1 -0.3,3.8 -0.5,0.8 -2.3,1.5 -3.1,2.1 -1.6,1.2 -2.9,2.5 -4.2,4 -2.7,3.2 -4.1,6.6 -5.4,10.6 -4.1,13.2 -4.5,29 0.9,42 0.7,1.7 2.9,5.4 4.2,1.6 0.3,-0.7 -0.3,-3.2 -0.3,-3.9 0,-2.7 1.5,-20.7 8,-30.8 2.1,-3.3 12,-15.6 14,-15.7 1.1,1.7 11.9,12.5 39.9,11.2 12.7,-0.6 22.4,-6.3 24.7,-8.7 1,5.5 13,13.8 14.8,17.2 5.3,9.8 6.4,30.3 8.4,30.3 2,0 3.5,-5.2 3.9,-6.2 3.1,-7.4 3.6,-16.6 3.3,-24.6 C 195.5,57 191.3,45.9 183.7,38.9 Z" />
								</g>
							</mask>
							<g
   class="st29"
   mask="url(#react-mask-924_1_)"
   id="g164">
								<g
   id="g162">
									<rect
   class="st30"
   width="264"
   height="280"
   id="rect160"
   x="0"
   y="0" />
								</g>
							</g>
						</g>
					</g>
				</g>
			</g>
		</g>
	</g>
</g>
<path
   id="path1020"
   style="font-variation-settings:'wdth' 100, 'wght' 300;fill:none;stroke:#000000;stroke-width:0.999998;stroke-miterlimit:4;stroke-dasharray:none"
   d="M 58.92381,140.25706 A 85.976471,78.729416 0 0 1 47.02352,100.2932 85.976471,78.729416 0 0 1 133,21.563779 85.976471,78.729416 0 0 1 218.97647,100.2932 v 0 a 85.976471,78.729416 0 0 1 -13.25653,42.00063" /><path
   id="path1660"
   style="font-variation-settings:'wdth' 100, 'wght' 300;fill:none;stroke:#000000;stroke-width:0.999998;stroke-miterlimit:4;stroke-dasharray:none"
   d="M 46.00564,150.47006 A 100.96994,92.489035 0 0 1 32.03006,103.52167 100.96994,92.489035 0 0 1 133,11.032639 100.96994,92.489035 0 0 1 233.96995,103.52167 v 0 A 100.96994,92.489035 0 0 1 218.4016,152.8628" /><path
   id="path1662"
   style="font-variation-settings:'wdth' 100, 'wght' 300;fill:none;stroke:#000000;stroke-width:0.999998;stroke-miterlimit:4;stroke-dasharray:none"
   d="M 33.08907,160.67896 A 115.96155,106.24693 0 0 1 17.03845,106.74692 115.96155,106.24693 0 0 1 133,0.49999899 115.96155,106.24693 0 0 1 248.96157,106.74692 v 0 a 115.96155,106.24693 0 0 1 -17.87988,56.68071" /><text
   xml:space="preserve"
   style="font-size:113.803px;line-height:1.25;font-family:Bahnschrift;-inkscape-font-specification:Bahnschrift;letter-spacing:0px;stroke-width:1"
   x="229.41975"
   y="204.81721"
   id="text2876"
   transform="rotate(15)"><tspan
     sodipodi:role="line"
     id="tspan2874"
     x="229.41975"
     y="204.81721"
     style="font-style:normal;font-variant:normal;font-weight:normal;font-stretch:normal;font-family:'Bauhaus 93';-inkscape-font-specification:'Bauhaus 93, ';stroke-width:1">?</tspan></text></svg>
